<?xml version="1.0" encoding="UTF-8"?>
<svg version="1.1" xmlns="http://www.w3.org/2000/svg" width="1675" height="335">
<path d="M0 0 C552.75 0 1105.5 0 1675 0 C1675 110.55 1675 221.1 1675 335 C1122.25 335 569.5 335 0 335 C0 224.45 0 113.9 0 0 Z " fill="#FEFEFE" transform="translate(0,0)"/>
<path d="M0 0 C1.31043649 2.4288788 2.59772746 4.86623581 3.875 7.3125 C4.23980469 7.98345703 4.60460937 8.65441406 4.98046875 9.34570312 C9.8910325 18.8543402 10.29536882 28.7781978 10.1953125 39.30517578 C10.19239197 40.48226105 10.18947144 41.65934631 10.1864624 42.87210083 C10.17889528 45.40869981 10.16671022 47.94528848 10.15032959 50.48184586 C10.12464402 54.50101515 10.11144102 58.52004604 10.10205078 62.53927612 C10.07996659 71.06791089 10.04088138 79.59643774 10 88.125 C9.95584067 97.34283871 9.91471984 106.5606331 9.89316368 115.7785567 C9.88166952 120.40635961 9.85455113 125.03392337 9.82470703 129.66165161 C9.8174395 132.0923038 9.81073635 134.52295776 9.8046875 136.95361328 C9.79435486 138.0447644 9.78402222 139.13591553 9.77337646 140.26013184 C9.77236667 147.58697739 9.83653264 154.75479896 14 161 C15.84188612 163.05270463 15.84188612 163.05270463 18 164 C18.28101563 163.27941406 18.56203125 162.55882812 18.8515625 161.81640625 C19.94327518 159.13911086 21.11276742 156.53834229 22.375 153.9375 C22.97441406 152.68259766 22.97441406 152.68259766 23.5859375 151.40234375 C25 149 25 149 27.05078125 147.03515625 C29.38720067 144.59572836 29.92841844 142.7401807 30.8125 139.5 C33.77048621 130.01364577 38.90599899 122.03114026 45.1171875 114.34375 C47.31274773 111.61068747 49.40569416 108.81133936 51.5 106 C59.63452571 95.1401315 67.84939356 86.03779301 78.1171875 77.171875 C81.13709565 74.55082265 84.10370508 71.94757243 86.875 69.0625 C89 67 89 67 91 67 C91.22171875 66.4225 91.4434375 65.845 91.671875 65.25 C93.40324431 62.3168567 95.46578978 60.94742573 98.25 59 C99.24386719 58.30003906 100.23773438 57.60007813 101.26171875 56.87890625 C104.15729851 54.89206764 107.06853513 52.93351938 110 51 C111.62671579 49.85660384 113.25153355 48.71050511 114.875 47.5625 C125.88723988 39.84900858 137.54066001 33.69272965 149.578125 27.7265625 C153.57479907 25.70997581 157.49174756 23.56971794 161.41015625 21.40625 C165.5509082 19.1578779 169.77364658 17.0815318 174 15 C175.41717154 14.29267731 176.83387117 13.58440799 178.25 12.875 C178.89839844 12.55402344 179.54679688 12.23304687 180.21484375 11.90234375 C181.76675076 11.1179006 183.29242962 10.28198354 184.8125 9.4375 C188.53800722 7.75736929 192.25738198 6.82983448 196.2109375 5.828125 C198.82967168 5.05057367 201.01805218 4.06181488 203.4375 2.8125 C209.81819018 -0.12193506 216.46560893 -0.25907061 223.0703125 2.09375 C224.9435468 2.95294013 226.79829401 3.85446607 228.625 4.80859375 C232.85682228 6.93146512 236.60815621 7.14282322 241.3125 7.375 C249.20933365 7.97498289 254.6201021 9.57336357 260.08984375 15.56640625 C268.64920779 26.47128109 272.79348536 36.05071466 271.8359375 50.16015625 C270.97862831 56.80365882 268.11130868 61.58257835 263 66 C261.515 66.495 261.515 66.495 260 67 C260 67.66 260 68.32 260 69 C259.34 69 258.68 69 258 69 C257.5978125 69.8971875 257.5978125 69.8971875 257.1875 70.8125 C256.00082594 72.99847854 254.90400887 74.41332594 253 76 C252.34 76 251.68 76 251 76 C250.76410156 76.59039062 250.52820313 77.18078125 250.28515625 77.7890625 C248.70554877 80.50656352 247.04616645 81.63588903 244.4375 83.375 C243.53128906 83.98214844 242.62507812 84.58929688 241.69140625 85.21484375 C240.80324219 85.80394531 239.91507813 86.39304687 239 87 C237.96166016 87.74443359 237.96166016 87.74443359 236.90234375 88.50390625 C230.3538533 93.13453437 223.21429614 96.51101516 216.02246094 100.00634766 C214.13118786 100.93554628 212.25492864 101.88836398 210.3828125 102.85546875 C202.10628907 107.10633622 193.67302459 110.6491919 185 114 C181.47523983 115.36515173 177.9554866 116.74249861 174.4375 118.125 C173.5923584 118.44976318 172.7472168 118.77452637 171.87646484 119.10913086 C168.21747061 120.54881308 165.1031632 121.93025049 161.828125 124.14453125 C158.62448094 126.24636955 156.06203187 126.87007774 152.3125 127.5625 C146.72892997 128.59935672 144.67731591 129.65175773 141.4375 134.1875 C140.963125 134.785625 140.48875 135.38375 140 136 C139.34 136 138.68 136 138 136 C139.98700092 150.03973018 143.07907885 162.35971513 150.09765625 174.66015625 C151.31857961 176.80366646 152.48229154 178.9813793 153.5703125 181.1953125 C154.82411104 183.65495008 156.10794654 185.65715554 157.8125 187.8125 C159.9035856 190.50756421 161.77440332 193.22203581 163.5625 196.125 C166.8579576 201.15490897 170.92468631 205.3611237 175.05126953 209.70556641 C178.35192009 213.18963843 181.46487592 216.72576943 184.4375 220.5 C190.06556975 227.53769761 196.56811627 233.70939927 203 240 C207.61328548 244.54026945 207.61328548 244.54026945 209.67578125 246.9921875 C215.23983961 253.39284652 222.13733733 256.09943722 229.828125 259.12353516 C231.98458196 259.99377802 234.1005359 260.92751817 236.21875 261.88671875 C244.07010972 265.38884919 251.38450009 267.71058687 259.90161133 268.93408203 C264.47242822 269.61967807 268.34701416 270.78410634 272.625 272.625 C285.18355602 277.81739095 300.50182632 276.15856987 313.90600586 276.13037109 C316.92892484 276.12501519 319.9516949 276.13034595 322.97460938 276.13671875 C344.68025695 276.63222292 344.68025695 276.63222292 365.6875 272.125 C367.29938038 271.57142492 368.912673 271.02194504 370.52734375 270.4765625 C371.29159668 270.21649414 372.05584961 269.95642578 372.84326172 269.68847656 C375.77430431 268.75282566 378.73684697 268.11372197 381.75 267.5 C387.89534047 266.17422858 393.53872573 263.95640989 399.30859375 261.52734375 C402.6962552 260.12567642 406.10464136 258.90174198 409.5625 257.6875 C415.24995844 255.54419669 420.05724203 252.63591477 424.98071289 249.12182617 C428.07014814 246.97673153 430.64604904 245.74900978 434.29296875 245.04296875 C435.51628906 244.69878906 436.73960937 244.35460937 438 244 C439.31468483 241.61694306 439.31468483 241.61694306 440 239 C441.91796875 237.26171875 441.91796875 237.26171875 444.1875 235.6875 C449.53242906 231.74550723 453.75965768 227.19332375 457.5703125 221.76171875 C458.04210937 221.18035156 458.51390625 220.59898437 459 220 C459.66 220 460.32 220 461 220 C461.28875 219.21625 461.5775 218.4325 461.875 217.625 C463 215 463 215 465 213 C466.32 213 467.64 213 469 213 C468.67 210.69 468.34 208.38 468 206 C463.78213968 204.86625183 460.53423773 205.22190134 456.25 205.9375 C444.14487043 207.75886666 429.93843975 209.2027034 418.8125 203.3125 C412.37094208 198.01610794 407.98514733 192.23651189 406 184 C405.55671552 176.95069559 407.79098368 171.15537294 411 165 C411.31066406 164.33613281 411.62132812 163.67226562 411.94140625 162.98828125 C414.21101076 158.45856848 416.47204146 157.02313041 421 155 C421.45890625 154.3503125 421.9178125 153.700625 422.390625 153.03125 C424.34418384 150.56559321 425.6958815 150.06573023 428.6875 149.1875 C429.49574219 148.93355469 430.30398438 148.67960938 431.13671875 148.41796875 C434.17559762 147.97436706 436.77484619 148.27596748 439.79760742 148.73071289 C442.12166879 149.01487647 444.36626284 149.06817394 446.70703125 149.0703125 C458.98296042 149.15542881 468.89689191 151.30502439 480.15087891 156.20410156 C481.72208445 156.88037963 483.32367682 157.48534817 484.9296875 158.07421875 C487 159 487 159 488.625 161.375 C491.745466 164.8239361 494.8369214 165.53774291 499.1875 166.9609375 C501.83873811 167.94042269 503.90938549 169.06154265 506.25 170.625 C512.36317968 174.6549866 518.77507788 175.84224957 526 175 C530.76382227 173.32384031 532.79487586 171.53275518 535 167 C537.375 167.75 537.375 167.75 540 169 C540.28875 169.680625 540.5775 170.36125 540.875 171.0625 C541.24625 171.701875 541.6175 172.34125 542 173 C548.48186523 174.58739557 558.1119724 175.56020274 564 172 C565.1570971 169.61404784 566.00360088 167.18602279 566.87890625 164.68359375 C568.69937534 160.3258855 571.40433093 157.03704215 575 154 C579.6528137 152.11907531 582.91830974 153.39908245 587.36328125 155.2109375 C589 156 589 156 590 157 C590.07319621 159.69654854 590.09242537 162.36691458 590.0625 165.0625 C590.05798828 165.82111328 590.05347656 166.57972656 590.04882812 167.36132812 C590.0370068 169.24091871 590.01907078 171.12046899 590 173 C588.68 173.66 587.36 174.32 586 175 C586 175.66 586 176.32 586 177 C585.01 177 584.02 177 583 177 C582.67 179.97 582.34 182.94 582 186 C582.804375 185.814375 583.60875 185.62875 584.4375 185.4375 C585.283125 185.293125 586.12875 185.14875 587 185 C587.33 185.33 587.66 185.66 588 186 C589.41340094 186.15769349 590.83125522 186.27634556 592.25 186.375 C596.22696261 186.8105721 598.95269926 187.22157874 602 190 C604.18431635 193.85668355 605.07257357 197.00211345 604.75 201.4375 C604 204 604 204 603 205 C601.51562191 205.22623521 600.02222575 205.39412965 598.52734375 205.53515625 C597.62822266 205.62216797 596.72910156 205.70917969 595.80273438 205.79882812 C594.85720703 205.88583984 593.91167969 205.97285156 592.9375 206.0625 C591.98810547 206.15337891 591.03871094 206.24425781 590.06054688 206.33789062 C587.70737865 206.56256498 585.35389381 206.78308182 583 207 C583 209.31 583 211.62 583 214 C593.76137387 218.68359389 604.53441581 218.59702911 616.0859375 218.82421875 C620.47949593 218.91462538 624.64880344 219.37840049 629 220 C646.37952083 220.86377064 663.39046607 219.44705834 680.625 217.37597656 C685.96902201 216.78065004 691.32588581 216.39812482 696.6875 216 C714.19887479 214.78607187 714.19887479 214.78607187 730.75 209.4375 C737.04010692 206.53437373 743.17249178 206.23480694 749.9855957 205.73803711 C759.25654828 205.02028058 768.084868 203.15021945 776.84765625 199.96484375 C781.80062814 198.44887838 786.88590571 197.90603183 792.01171875 197.23242188 C796.8991434 196.52922326 800.64763589 195.47500108 805 193 C809.49415382 191.16904845 814.02199585 189.67479425 818.66479492 188.26098633 C827.69607661 185.5064507 836.69276208 182.62558113 844.875 177.8125 C850.1415355 174.75790941 855.01863474 173.8209717 861 173 C861.33 172.67 861.66 172.34 862 172 C864.33297433 171.95907063 866.66705225 171.95758277 869 172 C869 174.97 869 177.94 869 181 C860.29275905 185.17453538 851.54375019 189.074179 842.5546875 192.6015625 C839.33414887 193.86854363 836.13224901 195.16956076 832.9375 196.5 C831.97585938 196.89832031 831.01421875 197.29664063 830.0234375 197.70703125 C827.86797582 198.62881137 825.72872052 199.58888003 823.6015625 200.57421875 C816.62920159 203.7525687 810.63097786 205.50012846 803.0390625 206.37890625 C799.7769474 207.0455853 797.93921546 208.1045169 795.1875 209.9375 C788.55680833 213.99068244 781.25997903 214.28041206 773.6784668 214.97436523 C767.60280496 215.54981015 762.59623201 216.60676072 757 219 C748.59644417 222.44197455 739.74337569 223.36561741 730.8125 224.5625 C728.50890692 224.87439708 726.20578395 225.18889919 723.90348816 225.51023865 C722.48070105 225.70856319 721.05714933 225.90150727 719.63276672 226.08802795 C715.54871588 226.65415809 711.88399302 227.64219451 708 229 C683.23886288 235.329855 658.1277629 235.56559621 632.75 235.5 C631.55519957 235.4985989 631.55519957 235.4985989 630.33626175 235.49716949 C625.67694363 235.49140885 621.01810854 235.47048945 616.35898781 235.42653275 C614.92229066 235.41320917 613.48556883 235.40228786 612.04883385 235.39399338 C600.76963028 235.3159678 590.83551539 234.51168041 580.6875 229.375 C579.99325928 229.02671143 579.29901855 228.67842285 578.58374023 228.31958008 C572.03610444 224.83193789 569.31735828 220.95207484 567 214 C566.6362703 208.67242973 567.0862061 203.49138403 567.9765625 198.23828125 C568.00806816 195.22949096 566.98795352 192.8215201 566 190 C565.10822052 189.96907761 565.10822052 189.96907761 564.19842529 189.93753052 C557.90168255 189.71790111 551.60531755 189.48907985 545.30908203 189.25537109 C542.97224988 189.16977167 540.63533607 189.08636757 538.29833984 189.00537109 C523.79326672 188.50090097 509.42014097 187.67080109 495 186 C495 186.66 495 187.32 495 188 C494.34 188 493.68 188 493 188 C491.92300974 190.62940864 490.9123108 193.25626998 489.9921875 195.9453125 C487.13821242 204.06816466 483.33956814 210.28889573 478 217 C476.89098499 218.45464973 475.78632298 219.91263609 474.6875 221.375 C474.20539063 222.00792969 473.72328125 222.64085937 473.2265625 223.29296875 C471.86882669 225.10359938 471.86882669 225.10359938 470.5625 227.6875 C468.73723185 230.38889686 466.54094465 231.78302465 463.859375 233.578125 C461.89484195 235.08041498 460.54456935 236.63576917 459 238.5625 C449.10094789 250.30789216 434.99376588 259.60049526 420.703125 264.92578125 C417.52693749 266.1879945 414.50681452 267.68381116 411.4375 269.1875 C401.50251318 273.97699212 391.02746766 277.43900886 380.62451172 281.05786133 C378.84388758 281.69706398 377.076403 282.37386897 375.32275391 283.08374023 C370.00316348 285.18216602 364.34431407 285.19756007 358.70019531 285.54541016 C348.97095791 286.16740443 339.71759142 287.26823211 330.25 289.625 C317.39159993 292.76894635 307.89194922 292.88560926 295.5078125 288.19140625 C289.53171539 286.1616628 283.72420475 285.91137963 277.47680664 285.76074219 C268.51746444 285.52009373 261.2360578 284.71626998 253 281 C250.85930221 280.23546507 248.71292857 279.4867209 246.5625 278.75 C224.27173113 270.7714759 206.1886704 262.24481203 189.1875 245.4375 C188.25405762 244.51819702 188.25405762 244.51819702 187.30175781 243.58032227 C183.60041796 239.85268603 180.35318411 235.99053832 177.29174805 231.72045898 C175.9174374 229.80588794 175.9174374 229.80588794 173.625 227.625 C173.08875 227.08875 172.5525 226.5525 172 226 C172 225.34 172 224.68 172 224 C171.34 224 170.68 224 170 224 C168.58293498 222.45111498 167.24190504 220.83238466 165.9375 219.1875 C165.133125 218.18074219 164.32875 217.17398438 163.5 216.13671875 C163.08492187 215.61384277 162.66984375 215.0909668 162.2421875 214.55224609 C160.33960703 212.17476838 158.38384339 209.8416944 156.4375 207.5 C143.54526821 191.67568077 134.5696082 174.62300998 125.875 156.25 C123.29744188 150.80848841 120.72125946 145.37137488 118 140 C114.72498273 140.42258287 112.04191867 141.38377018 109.08203125 142.7734375 C103.38696528 145.34113516 97.53294273 147.35690792 91.625 149.375 C90.48828857 149.7678418 89.35157715 150.16068359 88.18041992 150.56542969 C82.91789951 152.37200519 77.65076992 154.13327392 72.32421875 155.7421875 C71.47069824 156.00080566 70.61717773 156.25942383 69.73779297 156.52587891 C68.17930197 156.99119845 66.61730125 157.44500393 65.05126953 157.88427734 C61.34800426 158.9842824 58.58493767 160.16921528 55.53515625 162.56640625 C51.65109464 165.53999372 47.89694451 166.09923443 43.125 166.6875 C40.39066012 167.05558422 37.71398853 167.48630195 35 168 C34.67 168.66 34.34 169.32 34 170 C33.34 170 32.68 170 32 170 C31.67 171.32 31.34 172.64 31 174 C29.906875 174.20625 28.81375 174.4125 27.6875 174.625 C23.89052355 175.63354803 23.89052355 175.63354803 22.29663086 178.52783203 C20.6956882 182.81489783 20.55101501 186.39442153 20.56640625 190.9296875 C20.55953293 191.78907928 20.55265961 192.64847107 20.545578 193.53390503 C20.53188419 196.31464106 20.54446134 199.09429935 20.5625 201.875 C20.56487671 202.82040649 20.56725342 203.76581299 20.56970215 204.73986816 C20.64416155 223.59250718 22.64236795 241.10789269 28.18359375 259.1875 C31.27694722 269.8440287 31.41996633 282.48326561 28 293 C26.02090602 293.02686553 24.04171029 293.04633375 22.0625 293.0625 C20.96035156 293.07410156 19.85820312 293.08570313 18.72265625 293.09765625 C16 293 16 293 15 292 C14.58237507 288.59825511 14.2327905 285.1983767 13.92578125 281.78515625 C13.52251342 277.89601398 12.8951498 274.47304296 11.5234375 270.8046875 C9.36749703 264.74808448 9.04922263 258.49191418 8.5 252.125 C7.67628202 242.21649971 7.67628202 242.21649971 5.4375 232.5625 C3.41446223 225.74036707 3.55912903 218.94242974 3.5 211.875 C3.32496602 201.91361521 2.80764276 192.33554464 0.74609375 182.5703125 C-0.00279232 178.9866378 -0.4555324 175.44788583 -0.875 171.8125 C-1.71839203 165.56274882 -3.57355917 160.0119684 -5.87890625 154.15625 C-7.99321923 148.20375909 -8.1451549 142.4851343 -8.12939453 136.24755859 C-8.13114685 135.3881366 -8.13289917 134.5287146 -8.13470459 133.64324951 C-8.13909294 130.81162474 -8.13619416 127.98006287 -8.1328125 125.1484375 C-8.13348677 123.16793811 -8.13445783 121.1874388 -8.13571167 119.2069397 C-8.13718487 115.05608329 -8.13504756 110.90524843 -8.13037109 106.75439453 C-8.12469642 101.46235611 -8.12794082 96.17036866 -8.13394356 90.87833214 C-8.13757849 86.78597641 -8.1363968 82.69363251 -8.13381577 78.6012764 C-8.13315342 76.65185159 -8.13395042 74.70242568 -8.13629532 72.75300217 C-8.15359304 54.31868165 -8.15359304 54.31868165 -7.22705078 45.44152832 C-6.81487938 41.00935614 -6.85531991 36.57270003 -6.875 32.125 C-6.87113281 31.2278125 -6.86726563 30.330625 -6.86328125 29.40625 C-6.87006798 24.80484378 -7.16345875 20.53662753 -8 16 C-8.13472784 13.94021868 -8.21860921 11.87644412 -8.25 9.8125 C-8.27578125 8.78769531 -8.3015625 7.76289063 -8.328125 6.70703125 C-8 4 -8 4 -6.609375 2.19921875 C-4.14348482 0.36177146 -3.16558893 0 0 0 Z " fill="#2D2D2D" transform="translate(407,21)"/>
<path d="M0 0 C1.17304687 0.01675781 2.34609375 0.03351562 3.5546875 0.05078125 C10.50755579 0.36682072 16.38202868 1.72102702 22 6 C28.01056002 12.79115223 31.46684552 19.32998824 31.25 28.4375 C30.57750945 35.33052815 28.08641728 39.35587988 23 44 C21.64113202 45.57930036 20.28754352 47.16314957 18.9375 48.75 C13.25847479 55.10329075 6.62629465 60.71943222 -1.05078125 64.50390625 C-4.05138614 65.89642871 -4.05138614 65.89642871 -6.5078125 68.03125 C-9.21049699 70.16628602 -11.66871751 71.26745504 -14.875 72.5 C-18.82154889 74.07095636 -22.34669065 75.76623519 -25.98046875 77.9765625 C-28.79120605 79.40095935 -31.70812382 80.35256927 -34.6875 81.375 C-39.21206896 82.93224934 -43.40468623 84.62416599 -47.625 86.875 C-53.90239459 90.17978847 -60.48365097 92.34388517 -67.23486328 94.46435547 C-68.48178955 94.87258545 -68.48178955 94.87258545 -69.75390625 95.2890625 C-70.49970947 95.52318848 -71.2455127 95.75731445 -72.01391602 95.99853516 C-74.46478165 97.23436193 -75.38454294 98.81636632 -77 101 C-82.59040918 103.02411367 -88.20532314 103.79130052 -94 102 C-96.2630558 98.6054163 -96.25667291 97.38865276 -96.265625 93.40625 C-96.26820313 92.2925 -96.27078125 91.17875 -96.2734375 90.03125 C-96.26570312 88.8659375 -96.25796875 87.700625 -96.25 86.5 C-96.25773438 85.365625 -96.26546875 84.23125 -96.2734375 83.0625 C-96.25194605 73.69222847 -95.75219431 64.6972171 -91.375 56.25 C-88.18404387 49.13819162 -88.52909685 42.66002449 -89 35 C-88.34 35 -87.68 35 -87 35 C-87 34.34 -87 33.68 -87 33 C-85.33779419 31.99260254 -83.66979326 30.99477045 -82 30 C-80.94898112 29.03087869 -79.90805512 28.05074791 -78.875 27.0625 C-76.10869648 24.64345585 -73.73637848 23.38873972 -70.25 22.25 C-64.83189394 20.46617 -60.00404361 18.00881912 -55 15.3125 C-48.30869002 11.72643465 -41.58876992 8.2352441 -34.75 4.9375 C-33.9765625 4.5556958 -33.203125 4.1738916 -32.40625 3.78051758 C-22.08384307 -1.14270207 -11.17824555 -0.20380757 0 0 Z " fill="#FEFEFE" transform="translate(633,37)"/>
<path d="M0 0 C-0.14042495 3.50023856 -0.28833226 7.00012399 -0.4375 10.5 C-0.47681641 11.48226562 -0.51613281 12.46453125 -0.55664062 13.4765625 C-0.7360408 17.61656646 -0.9507648 21.65642394 -1.5390625 25.76171875 C-2.52346 32.89516666 -2.01941334 40.21055474 -1.90405273 47.39575195 C-1.87390546 49.40564958 -1.856685 51.41572809 -1.83984375 53.42578125 C-1.82300537 54.61598877 -1.80616699 55.80619629 -1.78881836 57.0324707 C-2 60 -2 60 -4 63 C-6.71484375 64.28125 -6.71484375 64.28125 -9.9375 65.5 C-14.0321572 66.90833047 -14.0321572 66.90833047 -17.3828125 69.4765625 C-20.04540605 71.9848028 -23.52294031 72.75853692 -26.9375 73.875 C-34.0946221 76.30337691 -41.04823309 79.03070274 -48 82 C-49.74756031 82.71433122 -51.49747876 83.42292776 -53.25 84.125 C-54.45462891 84.60839844 -54.45462891 84.60839844 -55.68359375 85.1015625 C-57.87822672 85.95276922 -60.08940481 86.72711083 -62.3125 87.5 C-65.87051636 88.94732869 -68.05296229 90.61050996 -71 93 C-75.08425739 94.42949009 -77.12096898 93.66798334 -81 92 C-81.68838678 80.18269361 -81.68838678 80.18269361 -79.1875 76.3125 C-77 74 -77 74 -74 73 C-72.91121241 70.70145955 -72.91121241 70.70145955 -72 68 C-66.52876243 56.81358432 -59.29950179 47.21949374 -51 38 C-49.95525492 36.77344879 -48.91347494 35.54436441 -47.875 34.3125 C-43.39994425 29.10921995 -38.60096835 24.85920848 -33.1484375 20.7109375 C-31.33058002 19.2632619 -29.72511608 17.80269746 -28.125 16.125 C-26 14 -26 14 -23 13 C-23 12.34 -23 11.68 -23 11 C-16.83516806 5.16362222 -8.89241183 -2.31110875 0 0 Z " fill="#FDFDFD" transform="translate(528,84)"/>
<path d="M0 0 C0.85145599 -0.00761353 1.70291199 -0.01522705 2.58016968 -0.02307129 C4.37372919 -0.03384552 6.1673513 -0.0367363 7.9609375 -0.03222656 C10.70938655 -0.03125055 13.45507615 -0.07297506 16.203125 -0.1171875 C17.94791085 -0.12239205 19.69270639 -0.12508273 21.4375 -0.125 C22.25940826 -0.14139526 23.08131653 -0.15779053 23.9281311 -0.17468262 C26.24462891 -0.14648438 26.24462891 -0.14648438 30.0859375 0.46875 C32.3599573 3.11626197 33.13985272 4.41740321 32.9609375 7.90625 C30.25868222 15.8199976 30.25868222 15.8199976 26.1484375 18.09375 C25.1378125 18.5475 24.1271875 19.00125 23.0859375 19.46875 C22.51746094 20.06945312 21.94898438 20.67015625 21.36328125 21.2890625 C15.09739404 27.28625815 5.22989043 31.91010474 -3.4140625 32.40625 C-8.70081419 32.01730642 -11.78033586 30.10565523 -15.421875 26.328125 C-19.12465612 21.71418831 -19.51639416 17.2140674 -18.9140625 11.46875 C-17.9140625 8.46875 -17.9140625 8.46875 -16.9140625 6.46875 C-16.2540625 6.46875 -15.5940625 6.46875 -14.9140625 6.46875 C-14.5840625 5.47875 -14.2540625 4.48875 -13.9140625 3.46875 C-9.56782837 -0.12506814 -5.3758531 0.00132392 0 0 Z " fill="#FDFDFD" transform="translate(846.9140625,186.53125)"/>
<path d="M0 0 C2.7928063 4.18920945 3.14555126 7.09235395 2.9140625 12.0625 C2.87023437 13.02414063 2.82640625 13.98578125 2.78125 14.9765625 C2.70390625 16.47316406 2.70390625 16.47316406 2.625 18 C2.58117187 18.99773438 2.53734375 19.99546875 2.4921875 21.0234375 C2.29183193 25.17525011 2.01468495 28.96978546 1 33 C0.90483081 35.84387945 0.86052018 38.65712841 0.875 41.5 C0.87113281 42.25925781 0.86726563 43.01851562 0.86328125 43.80078125 C0.84250049 47.97456138 0.84250049 47.97456138 1.5546875 52.06591797 C2.26534035 55.15242667 1.04113562 57.62386607 0.125 60.625 C-3.77400756 74.85571564 -2.85455891 90.3568411 -3 105 C-3.33 105 -3.66 105 -4 105 C-4.04723528 96.29542634 -4.0823156 87.59090994 -4.10362434 78.8862381 C-4.11387341 74.84028971 -4.12766569 70.79443158 -4.15087891 66.74853516 C-4.27196888 45.07747245 -3.67552663 23.61094299 -2 2 C-1.34 2 -0.68 2 0 2 C0 1.34 0 0.68 0 0 Z " fill="#5F5F5F" transform="translate(403,42)"/>
<path d="M0 0 C3.43962614 0.41275514 6.59234076 0.85554616 9.86547852 2.01538086 C13.07057577 3.02216933 15.67956702 3.29612351 19.02734375 3.37890625 C20.71053711 3.43014648 20.71053711 3.43014648 22.42773438 3.48242188 C23.58595703 3.50884766 24.74417969 3.53527344 25.9375 3.5625 C39.92194871 3.92948442 39.92194871 3.92948442 46 5 C44.96289062 6.4909668 44.96289062 6.4909668 43 8 C40.43758213 8.21635936 38.14398302 8.2582717 35.59375 8.14453125 C34.87264038 8.12283371 34.15153076 8.10113617 33.40856934 8.07878113 C31.88524159 8.02954681 30.36214225 7.97274665 28.83935547 7.90893555 C26.50902481 7.81287203 24.17901962 7.74343778 21.84765625 7.67773438 C20.36713209 7.62657927 18.88665978 7.57389606 17.40625 7.51953125 C16.7093103 7.49856888 16.01237061 7.47760651 15.29431152 7.45600891 C11.69247684 7.2924437 10.07831458 7.05220972 7 5 C4.67891331 4.29187186 2.34622853 3.61975848 0 3 C0 2.01 0 1.02 0 0 Z " fill="#5C5C5C" transform="translate(990,236)"/>
<path d="M0 0 C11.03861455 -0.04739486 22.06648841 0.03575771 33.10180664 0.31738281 C34.65706201 0.35574805 36.21240841 0.39058747 37.76782227 0.421875 C49.27780628 0.65364395 60.57869302 1.55525348 72 3 C71.67 3.66 71.34 4.32 71 5 C64.10268486 4.76083606 57.20579266 4.51136877 50.30908203 4.25537109 C47.97224988 4.16977167 45.63533607 4.08636757 43.29833984 4.00537109 C28.79326672 3.50090097 14.42014097 2.67080109 0 1 C0 0.67 0 0.34 0 0 Z " fill="#656565" transform="translate(902,206)"/>
<path d="M0 0 C-0.46484375 1.85546875 -0.46484375 1.85546875 -2 4 C-4.76505341 5.16785356 -7.62811467 5.71995719 -10.5625 6.3125 C-11.33658203 6.49361328 -12.11066406 6.67472656 -12.90820312 6.86132812 C-18.57580657 8.0741292 -23.27681541 7.8862074 -29 7 C-21.62909178 -0.37090822 -9.70107699 -0.17567343 0 0 Z " fill="#4C4C4C" transform="translate(1161,227)"/>
<path d="M0 0 C-0.33 1.32 -0.66 2.64 -1 4 C-2.03125 4.268125 -3.0625 4.53625 -4.125 4.8125 C-9.08754816 6.24187493 -13.05759696 7.58639544 -16 12 C-20.23516807 13.37020143 -24.59644764 13.07463648 -29 13 C-29 13.66 -29 14.32 -29 15 C-31.64 15 -34.28 15 -37 15 C-33.71871315 13.26424681 -30.35447623 11.97448699 -26.875 10.6875 C-21.83670225 8.77486513 -17.07523055 6.60976441 -12.29296875 4.13671875 C-3.94845361 0 -3.94845361 0 0 0 Z " fill="#4D4D4D" transform="translate(1261,196)"/>
<path d="M0 0 C-0.33 0.99 -0.66 1.98 -1 3 C-4.66884171 4.5308672 -8.90553532 4.30811617 -12.8359375 4.5 C-13.59290924 4.54060547 -14.34988098 4.58121094 -15.12979126 4.62304688 C-17.54468278 4.7523933 -19.95979089 4.87673574 -22.375 5 C-24.78305591 5.12344059 -27.19101283 5.24809751 -29.5987854 5.37695312 C-31.09452777 5.45698542 -32.59043722 5.53397312 -34.08651733 5.60742188 C-38.12568447 5.82330809 -42.01848516 6.30534209 -46 7 C-48.45754141 7.06578002 -50.91668778 7.08569162 -53.375 7.0625 C-55.24285156 7.04896484 -55.24285156 7.04896484 -57.1484375 7.03515625 C-58.55996094 7.01775391 -58.55996094 7.01775391 -60 7 C-60 6.67 -60 6.34 -60 6 C-45.17015248 4.34966684 -30.34758656 2.76566692 -15.46679688 1.64697266 C-14.53931641 1.57526855 -13.61183594 1.50356445 -12.65625 1.4296875 C-11.84994141 1.37022949 -11.04363281 1.31077148 -10.21289062 1.24951172 C-8.01026454 1.05340297 -8.01026454 1.05340297 -5.95898438 0.47314453 C-4 0 -4 0 0 0 Z " fill="#6A6A6A" transform="translate(1123,235)"/>
<path d="M0 0 C-9.44416837 5.20901373 -22.35751565 6.84437209 -32.81640625 4.3203125 C-34.90788979 3.63297049 -36.96073119 2.82953308 -39 2 C-36.17241877 1.19177872 -33.70601407 0.89003636 -30.76953125 0.9375 C-29.56393555 0.94910156 -29.56393555 0.94910156 -28.33398438 0.9609375 C-26.67252133 0.98667666 -25.01106283 1.01271114 -23.34960938 1.0390625 C-18.50479391 1.08531372 -13.82611434 0.85737404 -9.02050781 0.22485352 C-5.99953339 -0.11133757 -3.03663477 -0.06460925 0 0 Z " fill="#5B5B5B" transform="translate(744,308)"/>
<path d="M0 0 C3.87454079 5.81181119 3.00444702 11.31109437 2.6875 18.0625 C2.63432617 19.57166992 2.63432617 19.57166992 2.58007812 21.11132812 C2.51530273 22.55862305 2.51530273 22.55862305 2.44921875 24.03515625 C2.41143311 24.9156665 2.37364746 25.79617676 2.3347168 26.70336914 C2 29 2 29 0 32 C-0.66 22.1 -1.32 12.2 -2 2 C-1.34 2 -0.68 2 0 2 C0 1.34 0 0.68 0 0 Z " fill="#3C3C3C" transform="translate(403,42)"/>
<path d="M0 0 C2.31 0 4.62 0 7 0 C7 3.3 7 6.6 7 10 C5.68 9.01 4.36 8.02 3 7 C-0.05916188 6.85273667 -0.05916188 6.85273667 -3.25 7.3125 C-4.32765625 7.43238281 -5.4053125 7.55226562 -6.515625 7.67578125 C-7.74539063 7.83626953 -7.74539063 7.83626953 -9 8 C-8.67 7.01 -8.34 6.02 -8 5 C-7.34 5 -6.68 5 -6 5 C-6 4.34 -6 3.68 -6 3 C-5.195625 2.87625 -4.39125 2.7525 -3.5625 2.625 C-2.716875 2.41875 -1.87125 2.2125 -1 2 C-0.67 1.34 -0.34 0.68 0 0 Z " fill="#454545" transform="translate(870,219)"/>
<path d="M0 0 C-0.734375 1.9609375 -0.734375 1.9609375 -2 4 C-3.953125 4.5390625 -3.953125 4.5390625 -6.25 4.625 C-9.14360888 4.81331423 -11.12297339 5.04544669 -13.875 6.0625 C-18.54953703 7.46486111 -23.15472414 7.15518677 -28 7 C-24.72120119 4.81413413 -21.97353743 3.99791304 -18.1875 2.9375 C-16.98480469 2.59589844 -15.78210937 2.25429687 -14.54296875 1.90234375 C-9.64046742 0.65374639 -5.06291289 -0.1489092 0 0 Z " fill="#535353" transform="translate(1198,219)"/>
<path d="M0 0 C0.33 0 0.66 0 1 0 C1.82556321 6.39811491 2.16039798 12.74274304 2.25 19.1875 C2.27126953 19.94724121 2.29253906 20.70698242 2.31445312 21.48974609 C2.34647722 26.73826615 1.36186902 30.30733919 -1 35 C-1.33 35 -1.66 35 -2 35 C-1.40372756 23.32828419 -0.75605423 11.6625387 0 0 Z " fill="#5D5D5D" transform="translate(401,48)"/>
<path d="M0 0 C-4.55341988 1.52569134 -9.33778933 1.01613469 -14.06835938 0.87304688 C-18.23380944 0.80668075 -21.22959228 1.25720363 -25 3 C-27.8125 3.125 -27.8125 3.125 -30 3 C-22.43552858 -5.20825622 -9.28276262 -5.06332506 0 0 Z " fill="#6D6D6D" transform="translate(634,25)"/>
<path d="M0 0 C0.70833984 0.00386719 1.41667969 0.00773437 2.14648438 0.01171875 C7.14476845 0.09448702 11.46142227 0.67464076 16.1875 2.25 C16.1875 2.58 16.1875 2.91 16.1875 3.25 C15.1816687 3.24214478 15.1816687 3.24214478 14.15551758 3.23413086 C11.103688 3.21328395 8.05187344 3.20031531 5 3.1875 C3.94490234 3.17912109 2.88980469 3.17074219 1.80273438 3.16210938 C0.78115234 3.15888672 -0.24042969 3.15566406 -1.29296875 3.15234375 C-2.23035889 3.14710693 -3.16774902 3.14187012 -4.13354492 3.13647461 C-6.79691486 3.24933955 -9.21138511 3.68996181 -11.8125 4.25 C-13.58227761 4.31459042 -15.35420152 4.33611065 -17.125 4.3125 C-18.00800781 4.30347656 -18.89101563 4.29445313 -19.80078125 4.28515625 C-20.46464844 4.27355469 -21.12851562 4.26195312 -21.8125 4.25 C-21.8125 3.92 -21.8125 3.59 -21.8125 3.25 C-20.92498047 3.17652344 -20.92498047 3.17652344 -20.01953125 3.1015625 C-19.22933594 3.02679687 -18.43914063 2.95203125 -17.625 2.875 C-16.45904297 2.77058594 -16.45904297 2.77058594 -15.26953125 2.6640625 C-12.7766365 2.34802555 -12.7766365 2.34802555 -10.5 1.2265625 C-6.98933196 -0.04911629 -3.68448307 -0.04825329 0 0 Z " fill="#474747" transform="translate(621.8125,24.75)"/>
<path d="M0 0 C0 0.66 0 1.32 0 2 C-0.99 2.495 -0.99 2.495 -2 3 C-2.65213292 5.02463255 -2.65213292 5.02463255 -3 7 C-7.62459244 8.17700048 -12.07866462 8.11408412 -16.8125 8.0625 C-17.60076172 8.05798828 -18.38902344 8.05347656 -19.20117188 8.04882812 C-21.13414761 8.03711312 -23.06708393 8.01917998 -25 8 C-25 7.67 -25 7.34 -25 7 C-24.34515625 6.99742187 -23.6903125 6.99484375 -23.015625 6.9921875 C-15.8082864 6.6867918 -10.72814554 4.75612725 -4.43359375 1.27734375 C-2 0 -2 0 0 0 Z " fill="#4A4A4A" transform="translate(864,211)"/>
<path d="M0 0 C0 0.33 0 0.66 0 1 C-8.43750032 2.62377041 -16.66769259 3.38181774 -25.25 3.625 C-26.38824219 3.66367188 -27.52648438 3.70234375 -28.69921875 3.7421875 C-31.46599779 3.83518848 -34.23279117 3.92102861 -37 4 C-37.33 3.34 -37.66 2.68 -38 2 C-25.28660534 0.59218483 -12.79273087 -0.30179444 0 0 Z " fill="#464646" transform="translate(1100,240)"/>
<path d="M0 0 C0 1.32 0 2.64 0 4 C-5.87883349 6.61281488 -11.70731728 6.18328202 -18 6 C-14.89034717 4.36798362 -11.73309413 3.08562641 -8.4375 1.875 C-7.48746094 1.52179688 -6.53742187 1.16859375 -5.55859375 0.8046875 C-3 0 -3 0 0 0 Z " fill="#5D5D5D" transform="translate(781,291)"/>
<path d="M0 0 C3 1 3 1 3.984375 2.63671875 C5.67397789 7.16244079 6.32521546 10.18103471 5 15 C3.35 15.33 1.7 15.66 0 16 C0.12568359 14.89591797 0.12568359 14.89591797 0.25390625 13.76953125 C0.40666016 12.30580078 0.40666016 12.30580078 0.5625 10.8125 C0.66691406 9.84957031 0.77132812 8.88664063 0.87890625 7.89453125 C0.99758751 5.05766623 0.67765639 2.74576329 0 0 Z " fill="#434343" transform="translate(1006,210)"/>
<path d="M0 0 C2.125 0.375 2.125 0.375 4 1 C-0.03523352 5.81123996 -4.04467233 10.13242719 -9 14 C-9.66 13.67 -10.32 13.34 -11 13 C-9.38405168 10.95880212 -7.7143618 8.95927063 -6 7 C-5.34 7 -4.68 7 -4 7 C-3.71125 6.21625 -3.4225 5.4325 -3.125 4.625 C-2 2 -2 2 0 0 Z " fill="#4D4D4D" transform="translate(872,234)"/>
<path d="M0 0 C6.71539173 1.29975324 12.72019113 3.29928888 19 6 C19 6.33 19 6.66 19 7 C14.71 6.67 10.42 6.34 6 6 C6 5.34 6 4.68 6 4 C4.02 4 2.04 4 0 4 C0 2.68 0 1.36 0 0 Z " fill="#494949" transform="translate(870,172)"/>
<path d="M0 0 C0.66 0.33 1.32 0.66 2 1 C-1.97646715 5.33796417 -6.13380952 6.91784841 -11.75 8.4375 C-12.42426025 8.62538086 -13.09852051 8.81326172 -13.79321289 9.00683594 C-15.734375 9.49609375 -15.734375 9.49609375 -19 10 C-19.66 9.34 -20.32 8.68 -21 8 C-20.40574219 7.84144531 -19.81148438 7.68289062 -19.19921875 7.51953125 C-13.23236241 5.83990295 -7.80708938 3.63759532 -2.25 0.890625 C-1.13625 0.44976562 -1.13625 0.44976562 0 0 Z " fill="#4D4D4D" transform="translate(487,162)"/>
<path d="M0 0 C0.66 0.33 1.32 0.66 2 1 C0.07289294 14.6332574 0.07289294 14.6332574 -2 21 C-2.33 21 -2.66 21 -3 21 C-3 16.38 -3 11.76 -3 7 C-2.34 6.67 -1.68 6.34 -1 6 C-0.34227572 2.97065509 -0.34227572 2.97065509 0 0 Z " fill="#3F3F3F" transform="translate(403,92)"/>
<path d="M0 0 C0.33 0.66 0.66 1.32 1 2 C0.67 2.99 0.34 3.98 0 5 C-4.75016635 7.2012966 -8.88081854 7.1765235 -14 7 C-13.01 6.34 -12.02 5.68 -11 5 C-10.4225 4.505 -9.845 4.01 -9.25 3.5 C-6.32745508 1.55163672 -3.38670488 0.84667622 0 0 Z " fill="#545454" transform="translate(1220,211)"/>
<path d="M0 0 C0.99 0 1.98 0 3 0 C4.89455962 5.68367887 4.14711018 10.49803017 2 16 C1.34 16 0.68 16 0 16 C0 10.72 0 5.44 0 0 Z " fill="#505050" transform="translate(527,83)"/>
<path d="M0 0 C0.78503906 0.17144531 1.57007813 0.34289062 2.37890625 0.51953125 C4.4375 1.1875 4.4375 1.1875 6.4375 3.1875 C5.880625 3.17589844 5.32375 3.16429687 4.75 3.15234375 C-0.46028343 3.09073567 -5.4062951 3.43750656 -10.5625 4.1875 C-7.4927625 -0.34401727 -5.3170896 -1.21758724 0 0 Z " fill="#6F6F6F" transform="translate(989.5625,174.8125)"/>
<path d="M0 0 C0.66 0 1.32 0 2 0 C3.01973129 3.05919388 3.11533602 5.12418025 3.09765625 8.32421875 C3.09443359 9.35224609 3.09121094 10.38027344 3.08789062 11.43945312 C3.07951172 12.51130859 3.07113281 13.58316406 3.0625 14.6875 C3.05798828 15.77095703 3.05347656 16.85441406 3.04882812 17.97070312 C3.03703743 20.64719085 3.02058063 23.32356777 3 26 C2.67 26 2.34 26 2 26 C1.34 17.42 0.68 8.84 0 0 Z " fill="#4E4E4E" transform="translate(401,44)"/>
<path d="M0 0 C0 2 0 2 -1.4375 3.5 C-1.953125 3.995 -2.46875 4.49 -3 5 C-3.33 5.66 -3.66 6.32 -4 7 C-4.99 7 -5.98 7 -7 7 C-7 9.97 -7 12.94 -7 16 C-7.33 16 -7.66 16 -8 16 C-8.08107583 14.06318839 -8.13922475 12.1254066 -8.1875 10.1875 C-8.22230469 9.10855469 -8.25710938 8.02960937 -8.29296875 6.91796875 C-8 4 -8 4 -6.61328125 2.17578125 C-4.13695779 0.37100313 -3.15692544 0 0 0 Z " fill="#6F6F6F" transform="translate(407,21)"/>
<path d="M0 0 C0.66 0.33 1.32 0.66 2 1 C-2.65109657 5.90250719 -6.10959038 6.62673979 -12.8046875 6.95703125 C-13.89136719 6.97830078 -13.89136719 6.97830078 -15 7 C-12.0356239 5.02374927 -9.21212254 3.70113094 -5.9375 2.3125 C-4.87402344 1.85488281 -3.81054688 1.39726562 -2.71484375 0.92578125 C-1.81894531 0.62027344 -0.92304687 0.31476563 0 0 Z " fill="#505050" transform="translate(807,282)"/>
<path d="M0 0 C-6.02215104 4.01476736 -11.99943109 4.28573751 -19 4 C-14.46809218 -0.53190782 -6.11790586 -0.26599591 0 0 Z " fill="#6D6D6D" transform="translate(1158,227)"/>
<path d="M0 0 C0 2.97 0 5.94 0 9 C-0.5775 8.505 -1.155 8.01 -1.75 7.5 C-4.10400629 5.63019987 -4.10400629 5.63019987 -8 6 C-7.8125 4.125 -7.8125 4.125 -7 2 C-4.55683729 0.74709605 -2.75474605 0 0 0 Z " fill="#6A6A6A" transform="translate(877,220)"/>
<path d="M0 0 C-2.37783357 2.75328098 -4.51198161 3.96944911 -8 5 C-10.3320802 5.07646165 -12.66845878 5.09143299 -15 5 C-12.6050586 2.18614146 -10.46053694 1.26695912 -6.9375 0.25 C-5.62072266 -0.14445313 -5.62072266 -0.14445313 -4.27734375 -0.546875 C-2 -1 -2 -1 0 0 Z " fill="#545454" transform="translate(506,157)"/>
<path d="M0 0 C0.99 0.33 1.98 0.66 3 1 C3.17563129 5.4785979 3.22085338 9.02584132 1 13 C0.01 13.33 -0.98 13.66 -2 14 C-1.34 9.38 -0.68 4.76 0 0 Z " fill="#4C4C4C" transform="translate(664,60)"/>
<path d="M0 0 C-11.52164009 4.40774487 -11.52164009 4.40774487 -17 5 C-16.37109375 3.08203125 -16.37109375 3.08203125 -15 1 C-12.28515625 0.13671875 -12.28515625 0.13671875 -9.0625 -0.3125 C-8.00160156 -0.47363281 -6.94070313 -0.63476562 -5.84765625 -0.80078125 C-3 -1 -3 -1 0 0 Z " fill="#4E4E4E" transform="translate(487,174)"/>
<path d="M0 0 C0.33 0 0.66 0 1 0 C1.91160286 7.35793733 2.11459026 14.58982977 2 22 C1.67 21.34 1.34 20.68 1 20 C0.34 20 -0.32 20 -1 20 C-0.67 13.4 -0.34 6.8 0 0 Z " fill="#6F6F6F" transform="translate(401,48)"/>
<path d="M0 0 C0.89203125 0.00902344 1.7840625 0.01804688 2.703125 0.02734375 C3.37859375 0.03894531 4.0540625 0.05054688 4.75 0.0625 C4.42 0.7225 4.09 1.3825 3.75 2.0625 C0.12861734 3.08523507 -3.31734756 3.17012232 -7.0625 3.125 C-8.52623047 3.11146484 -8.52623047 3.11146484 -10.01953125 3.09765625 C-11.12361328 3.08025391 -11.12361328 3.08025391 -12.25 3.0625 C-8.04248553 0.25749035 -5.00014586 -0.06579139 0 0 Z " fill="#4C4C4C" transform="translate(1182.25,222.9375)"/>
<path d="M0 0 C3.96 0 7.92 0 12 0 C11.67 1.32 11.34 2.64 11 4 C8.03 4 5.06 4 2 4 C1.34 2.68 0.68 1.36 0 0 Z " fill="#5F5F5F" transform="translate(922,196)"/>
<path d="M0 0 C0 3.63 0 7.26 0 11 C-0.99 11.33 -1.98 11.66 -3 12 C-3 8.37 -3 4.74 -3 1 C-1 0 -1 0 0 0 Z " fill="#4B4B4B" transform="translate(403,87)"/>
<path d="M0 0 C1.79379098 0.44994757 3.58498928 0.91024143 5.375 1.375 C6.37273438 1.63023437 7.37046875 1.88546875 8.3984375 2.1484375 C11 3 11 3 13 5 C11.56260487 5.02712066 10.12506137 5.04645067 8.6875 5.0625 C7.48673828 5.07990234 7.48673828 5.07990234 6.26171875 5.09765625 C4 5 4 5 1 4 C0.3125 1.9375 0.3125 1.9375 0 0 Z " fill="#4F4F4F" transform="translate(671,291)"/>
<path d="M0 0 C3.96 0.33 7.92 0.66 12 1 C12 1.99 12 2.98 12 4 C10.5629191 4.05422947 9.12524538 4.09289723 7.6875 4.125 C6.88699219 4.14820313 6.08648438 4.17140625 5.26171875 4.1953125 C3 4 3 4 0 2 C0 1.34 0 0.68 0 0 Z " fill="#494949" transform="translate(953,195)"/>
<path d="M0 0 C5.94 2.475 5.94 2.475 12 5 C7.80104745 6.04973814 5.20594226 5.72795155 1 5 C0.67 3.35 0.34 1.7 0 0 Z " fill="#4D4D4D" transform="translate(644,283)"/>
<path d="M0 0 C-4.44404597 3.62107449 -8.21434368 5.33060893 -14 5 C-11.85073619 2.60894402 -10.00963087 1.36721146 -7 0.25 C-5.9790625 -0.14445312 -5.9790625 -0.14445312 -4.9375 -0.546875 C-3 -1 -3 -1 0 0 Z " fill="#7A7A7A" transform="translate(618,23)"/>
<path d="M0 0 C-1.38956025 3.35810395 -2.82526467 5.18586552 -6 7 C-8.75 7.1875 -8.75 7.1875 -11 7 C-4.48275862 0 -4.48275862 0 0 0 Z " fill="#4F4F4F" transform="translate(839,267)"/>
<path d="M0 0 C2.4375 0.75 2.4375 0.75 5 2 C5.8125 4.125 5.8125 4.125 6 6 C5.01 6 4.02 6 3 6 C3 5.34 3 4.68 3 4 C1.02 4.66 -0.96 5.32 -3 6 C-2.01 4.02 -1.02 2.04 0 0 Z " fill="#5B5B5B" transform="translate(942,188)"/>
<path d="M0 0 C-1.0719904 3.4541913 -2.09716431 4.05218083 -5.375 5.8125 C-8.941828 6.98094365 -9.67475827 7.07667519 -13 6 C-12.18595703 5.60167969 -12.18595703 5.60167969 -11.35546875 5.1953125 C-10.64003906 4.84210937 -9.92460938 4.48890625 -9.1875 4.125 C-8.47980469 3.77695312 -7.77210938 3.42890625 -7.04296875 3.0703125 C-1.18248175 0 -1.18248175 0 0 0 Z " fill="#494949" transform="translate(594,30)"/>
<path d="M0 0 C0.33 1.32 0.66 2.64 1 4 C0.34 4 -0.32 4 -1 4 C-1.33 6.64 -1.66 9.28 -2 12 C-2.99 12 -3.98 12 -5 12 C-4.54738642 10.56068883 -4.08767021 9.12361001 -3.625 7.6875 C-3.24214844 6.48673828 -3.24214844 6.48673828 -2.8515625 5.26171875 C-2 3 -2 3 0 0 Z " fill="#525252" transform="translate(820,183)"/>
<path d="M0 0 C-1 3 -1 3 -4 5 C-6.04296875 5.4140625 -6.04296875 5.4140625 -8.1875 5.625 C-9.445625 5.74875 -10.70375 5.8725 -12 6 C-9.1490916 2.47828963 -4.56486714 0 0 0 Z " fill="#565656" transform="translate(523,147)"/>
<path d="M0 0 C0 0.66 0 1.32 0 2 C-6.4 6.06153846 -6.4 6.06153846 -9.4375 5.75 C-9.953125 5.5025 -10.46875 5.255 -11 5 C-3.74193548 0 -3.74193548 0 0 0 Z " fill="#4C4C4C" transform="translate(581,37)"/>
<path d="M0 0 C-1.32 0.33 -2.64 0.66 -4 1 C-4 1.66 -4 2.32 -4 3 C-4.66 3 -5.32 3 -6 3 C-5.67 5.64 -5.34 8.28 -5 11 C-5.66 10.67 -6.32 10.34 -7 10 C-7 6.7 -7 3.4 -7 0 C-3.86650268 -1.04449911 -3.01031744 -0.93423645 0 0 Z " fill="#5B5B5B" transform="translate(550,69)"/>
<path d="M0 0 C0 0.66 0 1.32 0 2 C-1.64333504 3.03789581 -3.31243867 4.03567924 -5 5 C-5.66 5.66 -6.32 6.32 -7 7 C-9.625 7.125 -9.625 7.125 -12 7 C-9.20232475 3.70861735 -4.40323273 0 0 0 Z " fill="#4B4B4B" transform="translate(553,51)"/>
<path d="M0 0 C2.64 0 5.28 0 8 0 C6.58480285 2.0343459 5.45017877 2.90410393 3.01953125 3.421875 C1.01823046 3.66273952 -0.9909944 3.83532741 -3 4 C-2.01 3.67 -1.02 3.34 0 3 C0 2.01 0 1.02 0 0 Z " fill="#484848" transform="translate(454,183)"/>
<path d="M0 0 C4.62 1.65 9.24 3.3 14 5 C14 5.33 14 5.66 14 6 C8.58609132 5.53328373 4.79482068 4.75702189 0 2 C0 1.34 0 0.68 0 0 Z " fill="#626262" transform="translate(875,173)"/>
<path d="M0 0 C0.66 0.33 1.32 0.66 2 1 C0.92892883 1.86949317 -0.15745944 2.72014205 -1.25 3.5625 C-1.85328125 4.03816406 -2.4565625 4.51382813 -3.078125 5.00390625 C-5 6 -5 6 -7.234375 5.65234375 C-7.81703125 5.43707031 -8.3996875 5.22179687 -9 5 C-3.375 1.125 -3.375 1.125 0 0 Z " fill="#4F4F4F" transform="translate(617,109)"/>
<path d="M0 0 C0.5775 0.763125 1.155 1.52625 1.75 2.3125 C3.83357198 5.00891579 3.83357198 5.00891579 6.25 6.6875 C6.8275 7.120625 7.405 7.55375 8 8 C8 8.66 8 9.32 8 10 C6.68 9.67 5.36 9.34 4 9 C4 8.34 4 7.68 4 7 C3.01 6.67 2.02 6.34 1 6 C0.67 4.02 0.34 2.04 0 0 Z " fill="#575757" transform="translate(417,177)"/>
<path d="M0 0 C1.53668865 0.22467831 3.07968054 0.40796805 4.625 0.5625 C5.44226563 0.64628906 6.25953125 0.73007813 7.1015625 0.81640625 C7.72804688 0.87699219 8.35453125 0.93757812 9 1 C9 1.33 9 1.66 9 2 C4.05 2 -0.9 2 -6 2 C-6 1.34 -6 0.68 -6 0 C-2.25 -1.125 -2.25 -1.125 0 0 Z " fill="#6E6E6E" transform="translate(995,207)"/>
<path d="M0 0 C1.9375 0.6875 1.9375 0.6875 4 2 C4.75 4.625 4.75 4.625 5 7 C3.68 7.33 2.36 7.66 1 8 C0.67 5.36 0.34 2.72 0 0 Z " fill="#4D4D4D" transform="translate(878,188)"/>
<path d="M0 0 C1.49341969 2.98683937 0.40648676 4.95160978 -0.4375 8.125 C-0.72496094 9.22070312 -1.01242187 10.31640625 -1.30859375 11.4453125 C-1.53675781 12.28835937 -1.76492188 13.13140625 -2 14 C-2.33 14 -2.66 14 -3 14 C-3.29341888 8.32723489 -3.00559652 5.00932754 0 0 Z " fill="#383838" transform="translate(403,99)"/>
<path d="M0 0 C0.33 0.66 0.66 1.32 1 2 C-1.83430453 5.2542015 -3.68607774 6.5206753 -8 7 C-5.42215154 4.35247996 -3.08351902 2.05567935 0 0 Z " fill="#4C4C4C" transform="translate(533,61)"/>
<path d="M0 0 C1.07765625 0.00902344 2.1553125 0.01804688 3.265625 0.02734375 C4.08546875 0.03894531 4.9053125 0.05054688 5.75 0.0625 C5.75 0.3925 5.75 0.7225 5.75 1.0625 C3.83655626 1.45361271 1.91903447 1.82481167 0 2.1875 C-1.06734375 2.39632812 -2.1346875 2.60515625 -3.234375 2.8203125 C-6.38688351 3.07349324 -7.64959066 2.76665175 -10.25 1.0625 C-6.78777385 -0.00473961 -3.60960734 -0.03923486 0 0 Z " fill="#3E3E3E" transform="translate(1094.25,239.9375)"/>
<path d="M0 0 C3 4 3 4 2.8125 7.1875 C2.544375 8.115625 2.27625 9.04375 2 10 C1.01 10.495 1.01 10.495 0 11 C0 7.37 0 3.74 0 0 Z " fill="#6B6B6B" transform="translate(1009,215)"/>
<path d="M0 0 C0 2 0 2 -1.0625 3.625 C-3.96338818 5.68369484 -6.54480057 5.19557733 -10 5 C-3.63636364 0 -3.63636364 0 0 0 Z " fill="#626262" transform="translate(864,211)"/>
<path d="M0 0 C0.93065133 2.60582371 1.14917407 3.64198224 0.0625 6.25 C-0.4634375 7.11625 -0.4634375 7.11625 -1 8 C-1.99 8 -2.98 8 -4 8 C-2.87548273 5.0280615 -1.77706209 2.66559313 0 0 Z " fill="#4C4C4C" transform="translate(978,179)"/>
<path d="M0 0 C0.66 0.33 1.32 0.66 2 1 C-1.01887244 4.48331435 -3.56909529 5.79157144 -8 7 C-3.76744186 1.25581395 -3.76744186 1.25581395 0 0 Z " fill="#434343" transform="translate(523,68)"/>
<path d="M0 0 C0.66 0 1.32 0 2 0 C1.71125 0.70125 1.4225 1.4025 1.125 2.125 C-0.02133588 5.05452503 -1.02625654 8.00921653 -2 11 C-2.33 11 -2.66 11 -3 11 C-2.88590407 9.54077307 -2.75834456 8.08259402 -2.625 6.625 C-2.55539062 5.81289062 -2.48578125 5.00078125 -2.4140625 4.1640625 C-2 2 -2 2 0 0 Z " fill="#575757" transform="translate(898,209)"/>
<path d="M0 0 C0.33 0.66 0.66 1.32 1 2 C0.01 3.485 0.01 3.485 -1 5 C-1.99 5 -2.98 5 -4 5 C-4 5.66 -4 6.32 -4 7 C-5.32 6.67 -6.64 6.34 -8 6 C-5.36 4.02 -2.72 2.04 0 0 Z " fill="#515151" transform="translate(643,93)"/>
<path d="M0 0 C0 0.99 0 1.98 0 3 C-3.3 3.33 -6.6 3.66 -10 4 C-6.26899054 1.2017429 -4.49421532 0 0 0 Z " fill="#6D6D6D" transform="translate(1243,204)"/>
<path d="M0 0 C1.65 0 3.3 0 5 0 C3.68 1.65 2.36 3.3 1 5 C-0.32 4.67 -1.64 4.34 -3 4 C-2.34 4 -1.68 4 -1 4 C-0.67 2.68 -0.34 1.36 0 0 Z " fill="#3D3D3D" transform="translate(1244,203)"/>
<path d="M0 0 C2.64 0.66 5.28 1.32 8 2 C7.67 2.66 7.34 3.32 7 4 C4.03 3.505 4.03 3.505 1 3 C0.67 2.01 0.34 1.02 0 0 Z " fill="#4C4C4C" transform="translate(901,187)"/>
<path d="M0 0 C4.42857143 5.14285714 4.42857143 5.14285714 5 9 C2 8 2 8 0 5 C-0.125 2.3125 -0.125 2.3125 0 0 Z " fill="#4B4B4B" transform="translate(407,23)"/>
<path d="M0 0 C0.66 0.33 1.32 0.66 2 1 C0.37660195 2.70884005 -1.29319053 4.37446717 -3 6 C-3.66 6 -4.32 6 -5 6 C-3.63016497 2.83884224 -3.0109362 2.0072908 0 0 Z " fill="#4A4A4A" transform="translate(851,257)"/>
<path d="M0 0 C0.99 0 1.98 0 3 0 C3 2 3 2 1.5625 3.5 C1.046875 3.995 0.53125 4.49 0 5 C-0.33 5.66 -0.66 6.32 -1 7 C-1.99 7 -2.98 7 -4 7 C-3.67 6.01 -3.34 5.02 -3 4 C-2.34 4 -1.68 4 -1 4 C-0.67 2.68 -0.34 1.36 0 0 Z " fill="#555555" transform="translate(404,21)"/>
<path d="M0 0 C3.00617269 3.00617269 2.59585316 5.82381598 3 10 C1.5 8.9375 1.5 8.9375 0 7 C-0.1875 3.3125 -0.1875 3.3125 0 0 Z " fill="#4D4D4D" transform="translate(433,277)"/>
<path d="M0 0 C0 0.99 0 1.98 0 3 C-2.64 3 -5.28 3 -8 3 C-7.67 2.34 -7.34 1.68 -7 1 C-4.61370553 0.38812962 -2.46459429 0 0 0 Z " fill="#7E7E7E" transform="translate(1189,220)"/>
<path d="M0 0 C0.33 0 0.66 0 1 0 C1 2.31 1 4.62 1 7 C-0.98 7.99 -0.98 7.99 -3 9 C-3 8.01 -3 7.02 -3 6 C-2.34 6 -1.68 6 -1 6 C-0.67 4.02 -0.34 2.04 0 0 Z " fill="#3A3A3A" transform="translate(530,93)"/>
</svg>
